<svg version="1.2" xmlns="http://www.w3.org/2000/svg" viewBox="0 0 50 50" width="50" height="50">
	<title>whatsApp-svg</title>
	<defs>
		<linearGradient id="g1" x1="56.1" y1="62" x2="-6.1" y2="-12" gradientUnits="userSpaceOnUse">
			<stop offset="0" stop-color="#00820c"/>
			<stop offset="1" stop-color="#00e115"/>
		</linearGradient>
	</defs>
	<style>
		.s0 { fill: url(#g1) } 
	</style>
	<path id="Layer copy" fill-rule="evenodd" class="s0" d="m48 25c0 12.7-10.3 23-23 23-3.8 0-7.5-0.9-10.9-2.7l-10.9 2.7q-0.1 0-0.2 0c-0.3 0-0.5-0.1-0.7-0.3-0.3-0.3-0.4-0.6-0.3-1l3-10.4c-2-3.4-3-7.3-3-11.3 0-12.7 10.3-23 23-23 12.7 0 23 10.3 23 23zm-11.1 5.3c-0.1-0.2-0.5-0.3-1.1-0.6-0.6-0.3-3.5-1.7-4.1-1.9-0.5-0.2-0.9-0.3-1.3 0.3-0.4 0.5-1.5 1.9-1.9 2.2-0.3 0.4-0.6 0.5-1.2 0.2-0.6-0.3-2.5-0.9-4.8-2.9-1.7-1.5-2.9-3.5-3.3-4-0.3-0.6 0-0.9 0.3-1.2 0.3-0.3 0.6-0.7 0.9-1.1 0.3-0.3 0.4-0.5 0.6-0.9 0.2-0.4 0.1-0.8-0.1-1-0.1-0.3-1.3-3.2-1.8-4.4-0.5-1.1-1-1-1.3-1q-0.6 0-1.2 0c-0.4 0-1 0.1-1.5 0.7-0.6 0.6-2.1 2-2.1 4.9 0 2.9 2.1 5.6 2.4 6 0.3 0.4 4.2 6.3 10.1 8.8 1.4 0.6 2.5 1 3.4 1.3 1.4 0.4 2.7 0.3 3.7 0.2 1.1-0.2 3.5-1.4 4-2.8 0.5-1.3 0.5-2.5 0.3-2.8z"/>
</svg>